# xmcd CD database file generated by OrangeCD 6.3
#
# Track frame offsets:
#	150
#	11914
#	28410
#	45784
#	60824
#	77175
#	97105
#	110486
#	128671
#	144689
#	158415
#
# Disc length: 2360 seconds
#
# Revision: 5
# Processed by: cddbd v1.5.2PL0 Copyright (c) Steve Scherf et al.
# Submitted via: OrangeCD 6.3
#
DISCID=8609360b
DTITLE=Dolly Parton,Linda Ronstadt,Emmylou Harris - Trio
DYEAR=1987
DGENRE=Country
TTITLE0=The Pain Of Loving You
TTITLE1=Making Plans
TTITLE2=To Know Him Is To Love Him
TTITLE3=Hobo's Meditation
TTITLE4=Wildflowers
TTITLE5=Telling Me Lies
TTITLE6=My Dear Companion
TTITLE7=Those Memories Of You
TTITLE8=I've Had Enough
TTITLE9=Rosewood Casket
TTITLE10=Farther Along
EXTD=
EXTT0=
EXTT1=
EXTT2=
EXTT3=
EXTT4=
EXTT5=
EXTT6=
EXTT7=
EXTT8=
EXTT9=
EXTT10=
PLAYORDER=
